<mxfile host="app.diagrams.net" modified="2024-06-25T10:44:31.375Z" agent="Mozilla/5.0 (Macintosh; Intel Mac OS X 10_15_7) AppleWebKit/605.1.15 (KHTML, like Gecko) Version/17.5 Safari/605.1.15" etag="KwBCtY9qTCvw7Fkw6hAK" version="24.6.2" type="device">
  <diagram id="C5RBs43oDa-KdzZeNtuy" name="Page-1">
    <mxGraphModel dx="1224" dy="816" grid="1" gridSize="10" guides="1" tooltips="1" connect="1" arrows="1" fold="1" page="1" pageScale="1" pageWidth="827" pageHeight="1169" math="0" shadow="0">
      <root>
        <mxCell id="WIyWlLk6GJQsqaUBKTNV-0" />
        <mxCell id="WIyWlLk6GJQsqaUBKTNV-1" parent="WIyWlLk6GJQsqaUBKTNV-0" />
        <mxCell id="p5qgGo7XCK0Cg9WAAUh_-19" value="&lt;h3&gt;&lt;b&gt;Machine&lt;/b&gt;&lt;/h3&gt;" style="swimlane;fontStyle=0;childLayout=stackLayout;horizontal=1;startSize=26;fillColor=none;horizontalStack=0;resizeParent=1;resizeParentMax=0;resizeLast=0;collapsible=1;marginBottom=0;whiteSpace=wrap;html=1;" vertex="1" parent="WIyWlLk6GJQsqaUBKTNV-1">
          <mxGeometry x="60" y="49" width="290" height="78" as="geometry" />
        </mxCell>
        <mxCell id="p5qgGo7XCK0Cg9WAAUh_-20" value="&lt;b&gt;id&lt;/b&gt;&lt;span style=&quot;white-space: pre;&quot;&gt;&#x9;&lt;/span&gt;&lt;span style=&quot;white-space: pre;&quot;&gt;&#x9;&lt;/span&gt;&lt;span style=&quot;white-space: pre;&quot;&gt;&#x9;&lt;/span&gt;: integer (increment, pk)" style="text;strokeColor=none;fillColor=none;align=left;verticalAlign=top;spacingLeft=4;spacingRight=4;overflow=hidden;rotatable=0;points=[[0,0.5],[1,0.5]];portConstraint=eastwest;whiteSpace=wrap;html=1;" vertex="1" parent="p5qgGo7XCK0Cg9WAAUh_-19">
          <mxGeometry y="26" width="290" height="26" as="geometry" />
        </mxCell>
        <mxCell id="p5qgGo7XCK0Cg9WAAUh_-21" value="&lt;b&gt;active_status&lt;/b&gt;&lt;span style=&quot;white-space: pre;&quot;&gt;&#x9;&lt;/span&gt;: enum - 0, 1, 2" style="text;strokeColor=none;fillColor=none;align=left;verticalAlign=top;spacingLeft=4;spacingRight=4;overflow=hidden;rotatable=0;points=[[0,0.5],[1,0.5]];portConstraint=eastwest;whiteSpace=wrap;html=1;" vertex="1" parent="p5qgGo7XCK0Cg9WAAUh_-19">
          <mxGeometry y="52" width="290" height="26" as="geometry" />
        </mxCell>
        <mxCell id="p5qgGo7XCK0Cg9WAAUh_-23" value="&lt;h3&gt;&lt;b&gt;Active Status (Enum)&lt;/b&gt;&lt;/h3&gt;" style="swimlane;fontStyle=0;childLayout=stackLayout;horizontal=1;startSize=30;horizontalStack=0;resizeParent=1;resizeParentMax=0;resizeLast=0;collapsible=1;marginBottom=0;whiteSpace=wrap;html=1;" vertex="1" parent="WIyWlLk6GJQsqaUBKTNV-1">
          <mxGeometry x="430" y="49" width="180" height="90" as="geometry" />
        </mxCell>
        <mxCell id="p5qgGo7XCK0Cg9WAAUh_-26" value="&lt;b&gt;0&lt;/b&gt;: free" style="text;strokeColor=none;fillColor=none;align=left;verticalAlign=middle;spacingLeft=4;spacingRight=4;overflow=hidden;points=[[0,0.5],[1,0.5]];portConstraint=eastwest;rotatable=0;whiteSpace=wrap;html=1;" vertex="1" parent="p5qgGo7XCK0Cg9WAAUh_-23">
          <mxGeometry y="30" width="180" height="30" as="geometry" />
        </mxCell>
        <mxCell id="p5qgGo7XCK0Cg9WAAUh_-25" value="&lt;b&gt;1&lt;/b&gt;: in_using" style="text;strokeColor=none;fillColor=none;align=left;verticalAlign=middle;spacingLeft=4;spacingRight=4;overflow=hidden;points=[[0,0.5],[1,0.5]];portConstraint=eastwest;rotatable=0;whiteSpace=wrap;html=1;" vertex="1" parent="p5qgGo7XCK0Cg9WAAUh_-23">
          <mxGeometry y="60" width="180" height="30" as="geometry" />
        </mxCell>
        <mxCell id="p5qgGo7XCK0Cg9WAAUh_-35" value="Worker" style="swimlane;fontStyle=0;childLayout=stackLayout;horizontal=1;startSize=26;fillColor=none;horizontalStack=0;resizeParent=1;resizeParentMax=0;resizeLast=0;collapsible=1;marginBottom=0;whiteSpace=wrap;html=1;" vertex="1" parent="WIyWlLk6GJQsqaUBKTNV-1">
          <mxGeometry x="60" y="370" width="290" height="156" as="geometry" />
        </mxCell>
        <mxCell id="p5qgGo7XCK0Cg9WAAUh_-36" value="&lt;b&gt;id&lt;/b&gt;&lt;span style=&quot;white-space: pre;&quot;&gt;&#x9;&lt;/span&gt;&lt;span style=&quot;white-space: pre;&quot;&gt;&#x9; &lt;span style=&quot;white-space: pre;&quot;&gt;&#x9;    &lt;/span&gt;&lt;/span&gt;: integer (increment, pk)" style="text;strokeColor=none;fillColor=none;align=left;verticalAlign=top;spacingLeft=4;spacingRight=4;overflow=hidden;rotatable=0;points=[[0,0.5],[1,0.5]];portConstraint=eastwest;whiteSpace=wrap;html=1;" vertex="1" parent="p5qgGo7XCK0Cg9WAAUh_-35">
          <mxGeometry y="26" width="290" height="26" as="geometry" />
        </mxCell>
        <mxCell id="p5qgGo7XCK0Cg9WAAUh_-37" value="&lt;b&gt;name&lt;/b&gt;&lt;span style=&quot;white-space: pre;&quot;&gt;&#x9;&lt;span style=&quot;white-space: pre;&quot;&gt;&#x9;    &lt;/span&gt;&lt;/span&gt;: varchar- 0, 1, 2" style="text;strokeColor=none;fillColor=none;align=left;verticalAlign=top;spacingLeft=4;spacingRight=4;overflow=hidden;rotatable=0;points=[[0,0.5],[1,0.5]];portConstraint=eastwest;whiteSpace=wrap;html=1;" vertex="1" parent="p5qgGo7XCK0Cg9WAAUh_-35">
          <mxGeometry y="52" width="290" height="26" as="geometry" />
        </mxCell>
        <mxCell id="p5qgGo7XCK0Cg9WAAUh_-52" value="&lt;b&gt;phone_number&lt;span style=&quot;white-space: pre;&quot;&gt;&amp;nbsp; &lt;/span&gt;&lt;/b&gt;: unique, varchar (89990009900)&amp;nbsp;" style="text;strokeColor=none;fillColor=none;align=left;verticalAlign=top;spacingLeft=4;spacingRight=4;overflow=hidden;rotatable=0;points=[[0,0.5],[1,0.5]];portConstraint=eastwest;whiteSpace=wrap;html=1;" vertex="1" parent="p5qgGo7XCK0Cg9WAAUh_-35">
          <mxGeometry y="78" width="290" height="26" as="geometry" />
        </mxCell>
        <mxCell id="p5qgGo7XCK0Cg9WAAUh_-55" value="&lt;b&gt;job_position&lt;span style=&quot;white-space: pre;&quot;&gt;&amp;nbsp; &lt;span style=&quot;white-space: pre;&quot;&gt;&#x9;    &lt;/span&gt;&lt;/span&gt;&lt;/b&gt;: &amp;nbsp;enum - 0, 1, 2" style="text;strokeColor=none;fillColor=none;align=left;verticalAlign=top;spacingLeft=4;spacingRight=4;overflow=hidden;rotatable=0;points=[[0,0.5],[1,0.5]];portConstraint=eastwest;whiteSpace=wrap;html=1;" vertex="1" parent="p5qgGo7XCK0Cg9WAAUh_-35">
          <mxGeometry y="104" width="290" height="26" as="geometry" />
        </mxCell>
        <mxCell id="p5qgGo7XCK0Cg9WAAUh_-64" value="&lt;b&gt;session_id:&lt;span style=&quot;white-space: pre;&quot;&gt;&amp;nbsp; &lt;span style=&quot;white-space: pre;&quot;&gt;&#x9;    &lt;/span&gt;&lt;/span&gt;&lt;/b&gt;: current session id or NULL&amp;nbsp;" style="text;strokeColor=none;fillColor=none;align=left;verticalAlign=top;spacingLeft=4;spacingRight=4;overflow=hidden;rotatable=0;points=[[0,0.5],[1,0.5]];portConstraint=eastwest;whiteSpace=wrap;html=1;" vertex="1" parent="p5qgGo7XCK0Cg9WAAUh_-35">
          <mxGeometry y="130" width="290" height="26" as="geometry" />
        </mxCell>
        <mxCell id="p5qgGo7XCK0Cg9WAAUh_-43" value="&lt;h3&gt;Machine Session&lt;/h3&gt;" style="swimlane;fontStyle=0;childLayout=stackLayout;horizontal=1;startSize=26;fillColor=none;horizontalStack=0;resizeParent=1;resizeParentMax=0;resizeLast=0;collapsible=1;marginBottom=0;whiteSpace=wrap;html=1;" vertex="1" parent="WIyWlLk6GJQsqaUBKTNV-1">
          <mxGeometry x="60" y="160" width="290" height="182" as="geometry" />
        </mxCell>
        <mxCell id="p5qgGo7XCK0Cg9WAAUh_-44" value="&lt;b&gt;id&lt;/b&gt;&lt;span style=&quot;white-space: pre;&quot;&gt;&#x9;&lt;/span&gt;&lt;span style=&quot;white-space: pre;&quot;&gt;&#x9;&lt;/span&gt;&lt;span style=&quot;white-space: pre;&quot;&gt;&#x9;&lt;span style=&quot;white-space: pre;&quot;&gt;&#x9;&lt;/span&gt;&lt;/span&gt;: integer (increment, pk)" style="text;strokeColor=none;fillColor=none;align=left;verticalAlign=top;spacingLeft=4;spacingRight=4;overflow=hidden;rotatable=0;points=[[0,0.5],[1,0.5]];portConstraint=eastwest;whiteSpace=wrap;html=1;" vertex="1" parent="p5qgGo7XCK0Cg9WAAUh_-43">
          <mxGeometry y="26" width="290" height="26" as="geometry" />
        </mxCell>
        <mxCell id="p5qgGo7XCK0Cg9WAAUh_-48" value="&lt;b&gt;session_status&lt;/b&gt;&lt;span style=&quot;white-space: pre;&quot;&gt;&#x9;&lt;/span&gt;: foreign_key" style="text;strokeColor=none;fillColor=none;align=left;verticalAlign=top;spacingLeft=4;spacingRight=4;overflow=hidden;rotatable=0;points=[[0,0.5],[1,0.5]];portConstraint=eastwest;whiteSpace=wrap;html=1;" vertex="1" parent="p5qgGo7XCK0Cg9WAAUh_-43">
          <mxGeometry y="52" width="290" height="26" as="geometry" />
        </mxCell>
        <mxCell id="p5qgGo7XCK0Cg9WAAUh_-66" value="&lt;b&gt;machine_id&lt;/b&gt;&lt;span style=&quot;white-space: pre;&quot;&gt;&#x9;&lt;span style=&quot;white-space: pre;&quot;&gt;&#x9;&lt;/span&gt;&lt;/span&gt;: foreign_key" style="text;strokeColor=none;fillColor=none;align=left;verticalAlign=top;spacingLeft=4;spacingRight=4;overflow=hidden;rotatable=0;points=[[0,0.5],[1,0.5]];portConstraint=eastwest;whiteSpace=wrap;html=1;" vertex="1" parent="p5qgGo7XCK0Cg9WAAUh_-43">
          <mxGeometry y="78" width="290" height="26" as="geometry" />
        </mxCell>
        <mxCell id="p5qgGo7XCK0Cg9WAAUh_-45" value="&lt;b&gt;worker_id&lt;/b&gt;&lt;span style=&quot;white-space: pre;&quot;&gt;&#x9;&lt;span style=&quot;white-space: pre;&quot;&gt;&#x9;&lt;/span&gt;&lt;/span&gt;: foreign_key" style="text;strokeColor=none;fillColor=none;align=left;verticalAlign=top;spacingLeft=4;spacingRight=4;overflow=hidden;rotatable=0;points=[[0,0.5],[1,0.5]];portConstraint=eastwest;whiteSpace=wrap;html=1;" vertex="1" parent="p5qgGo7XCK0Cg9WAAUh_-43">
          <mxGeometry y="104" width="290" height="26" as="geometry" />
        </mxCell>
        <mxCell id="p5qgGo7XCK0Cg9WAAUh_-46" value="&lt;b&gt;date_time_start&lt;/b&gt;&lt;span style=&quot;white-space: pre;&quot;&gt;&#x9;&lt;/span&gt;: timestamp in format" style="text;strokeColor=none;fillColor=none;align=left;verticalAlign=top;spacingLeft=4;spacingRight=4;overflow=hidden;rotatable=0;points=[[0,0.5],[1,0.5]];portConstraint=eastwest;whiteSpace=wrap;html=1;" vertex="1" parent="p5qgGo7XCK0Cg9WAAUh_-43">
          <mxGeometry y="130" width="290" height="26" as="geometry" />
        </mxCell>
        <mxCell id="p5qgGo7XCK0Cg9WAAUh_-51" value="&lt;b&gt;date_time_finish&lt;/b&gt;&lt;span style=&quot;white-space: pre;&quot;&gt;&#x9;&lt;/span&gt;: timestamp in format" style="text;strokeColor=none;fillColor=none;align=left;verticalAlign=top;spacingLeft=4;spacingRight=4;overflow=hidden;rotatable=0;points=[[0,0.5],[1,0.5]];portConstraint=eastwest;whiteSpace=wrap;html=1;" vertex="1" parent="p5qgGo7XCK0Cg9WAAUh_-43">
          <mxGeometry y="156" width="290" height="26" as="geometry" />
        </mxCell>
        <mxCell id="p5qgGo7XCK0Cg9WAAUh_-49" style="edgeStyle=orthogonalEdgeStyle;rounded=0;orthogonalLoop=1;jettySize=auto;html=1;entryX=0;entryY=0.5;entryDx=0;entryDy=0;" edge="1" parent="WIyWlLk6GJQsqaUBKTNV-1" source="p5qgGo7XCK0Cg9WAAUh_-48" target="p5qgGo7XCK0Cg9WAAUh_-20">
          <mxGeometry relative="1" as="geometry" />
        </mxCell>
        <mxCell id="p5qgGo7XCK0Cg9WAAUh_-50" style="edgeStyle=orthogonalEdgeStyle;rounded=0;orthogonalLoop=1;jettySize=auto;html=1;entryX=-0.013;entryY=0.104;entryDx=0;entryDy=0;entryPerimeter=0;" edge="1" parent="WIyWlLk6GJQsqaUBKTNV-1" source="p5qgGo7XCK0Cg9WAAUh_-21" target="p5qgGo7XCK0Cg9WAAUh_-23">
          <mxGeometry relative="1" as="geometry" />
        </mxCell>
        <mxCell id="p5qgGo7XCK0Cg9WAAUh_-57" style="edgeStyle=orthogonalEdgeStyle;rounded=0;orthogonalLoop=1;jettySize=auto;html=1;entryX=0;entryY=0.5;entryDx=0;entryDy=0;exitX=0;exitY=0.5;exitDx=0;exitDy=0;" edge="1" parent="WIyWlLk6GJQsqaUBKTNV-1" source="p5qgGo7XCK0Cg9WAAUh_-45" target="p5qgGo7XCK0Cg9WAAUh_-36">
          <mxGeometry relative="1" as="geometry" />
        </mxCell>
        <mxCell id="p5qgGo7XCK0Cg9WAAUh_-59" value="Job Positions (Enum)" style="swimlane;fontStyle=0;childLayout=stackLayout;horizontal=1;startSize=30;horizontalStack=0;resizeParent=1;resizeParentMax=0;resizeLast=0;collapsible=1;marginBottom=0;whiteSpace=wrap;html=1;" vertex="1" parent="WIyWlLk6GJQsqaUBKTNV-1">
          <mxGeometry x="430" y="375" width="180" height="120" as="geometry" />
        </mxCell>
        <mxCell id="p5qgGo7XCK0Cg9WAAUh_-60" value="&lt;b&gt;0&lt;/b&gt;: worker" style="text;strokeColor=none;fillColor=none;align=left;verticalAlign=middle;spacingLeft=4;spacingRight=4;overflow=hidden;points=[[0,0.5],[1,0.5]];portConstraint=eastwest;rotatable=0;whiteSpace=wrap;html=1;" vertex="1" parent="p5qgGo7XCK0Cg9WAAUh_-59">
          <mxGeometry y="30" width="180" height="30" as="geometry" />
        </mxCell>
        <mxCell id="p5qgGo7XCK0Cg9WAAUh_-61" value="&lt;b&gt;1&lt;/b&gt;: operator" style="text;strokeColor=none;fillColor=none;align=left;verticalAlign=middle;spacingLeft=4;spacingRight=4;overflow=hidden;points=[[0,0.5],[1,0.5]];portConstraint=eastwest;rotatable=0;whiteSpace=wrap;html=1;" vertex="1" parent="p5qgGo7XCK0Cg9WAAUh_-59">
          <mxGeometry y="60" width="180" height="30" as="geometry" />
        </mxCell>
        <mxCell id="p5qgGo7XCK0Cg9WAAUh_-62" value="&lt;b&gt;2&lt;/b&gt;: admin" style="text;strokeColor=none;fillColor=none;align=left;verticalAlign=middle;spacingLeft=4;spacingRight=4;overflow=hidden;points=[[0,0.5],[1,0.5]];portConstraint=eastwest;rotatable=0;whiteSpace=wrap;html=1;" vertex="1" parent="p5qgGo7XCK0Cg9WAAUh_-59">
          <mxGeometry y="90" width="180" height="30" as="geometry" />
        </mxCell>
        <mxCell id="p5qgGo7XCK0Cg9WAAUh_-63" style="edgeStyle=orthogonalEdgeStyle;rounded=0;orthogonalLoop=1;jettySize=auto;html=1;entryX=-0.022;entryY=0.142;entryDx=0;entryDy=0;entryPerimeter=0;" edge="1" parent="WIyWlLk6GJQsqaUBKTNV-1" source="p5qgGo7XCK0Cg9WAAUh_-55" target="p5qgGo7XCK0Cg9WAAUh_-59">
          <mxGeometry relative="1" as="geometry" />
        </mxCell>
        <mxCell id="p5qgGo7XCK0Cg9WAAUh_-65" style="edgeStyle=orthogonalEdgeStyle;rounded=0;orthogonalLoop=1;jettySize=auto;html=1;entryX=0;entryY=0.5;entryDx=0;entryDy=0;" edge="1" parent="WIyWlLk6GJQsqaUBKTNV-1" source="p5qgGo7XCK0Cg9WAAUh_-64" target="p5qgGo7XCK0Cg9WAAUh_-44">
          <mxGeometry relative="1" as="geometry">
            <Array as="points">
              <mxPoint x="10" y="513" />
              <mxPoint x="10" y="199" />
            </Array>
          </mxGeometry>
        </mxCell>
        <mxCell id="p5qgGo7XCK0Cg9WAAUh_-67" value="&lt;h3&gt;&lt;b&gt;Active Status (Enum)&lt;/b&gt;&lt;/h3&gt;" style="swimlane;fontStyle=0;childLayout=stackLayout;horizontal=1;startSize=30;horizontalStack=0;resizeParent=1;resizeParentMax=0;resizeLast=0;collapsible=1;marginBottom=0;whiteSpace=wrap;html=1;" vertex="1" parent="WIyWlLk6GJQsqaUBKTNV-1">
          <mxGeometry x="430" y="185" width="180" height="120" as="geometry" />
        </mxCell>
        <mxCell id="p5qgGo7XCK0Cg9WAAUh_-68" value="&lt;b&gt;0&lt;/b&gt;: active" style="text;strokeColor=none;fillColor=none;align=left;verticalAlign=middle;spacingLeft=4;spacingRight=4;overflow=hidden;points=[[0,0.5],[1,0.5]];portConstraint=eastwest;rotatable=0;whiteSpace=wrap;html=1;" vertex="1" parent="p5qgGo7XCK0Cg9WAAUh_-67">
          <mxGeometry y="30" width="180" height="30" as="geometry" />
        </mxCell>
        <mxCell id="p5qgGo7XCK0Cg9WAAUh_-69" value="&lt;b&gt;1&lt;/b&gt;: stop" style="text;strokeColor=none;fillColor=none;align=left;verticalAlign=middle;spacingLeft=4;spacingRight=4;overflow=hidden;points=[[0,0.5],[1,0.5]];portConstraint=eastwest;rotatable=0;whiteSpace=wrap;html=1;" vertex="1" parent="p5qgGo7XCK0Cg9WAAUh_-67">
          <mxGeometry y="60" width="180" height="30" as="geometry" />
        </mxCell>
        <mxCell id="p5qgGo7XCK0Cg9WAAUh_-70" value="&lt;b&gt;2&lt;/b&gt;: finished" style="text;strokeColor=none;fillColor=none;align=left;verticalAlign=middle;spacingLeft=4;spacingRight=4;overflow=hidden;points=[[0,0.5],[1,0.5]];portConstraint=eastwest;rotatable=0;whiteSpace=wrap;html=1;" vertex="1" parent="p5qgGo7XCK0Cg9WAAUh_-67">
          <mxGeometry y="90" width="180" height="30" as="geometry" />
        </mxCell>
        <mxCell id="p5qgGo7XCK0Cg9WAAUh_-71" style="edgeStyle=orthogonalEdgeStyle;rounded=0;orthogonalLoop=1;jettySize=auto;html=1;entryX=0;entryY=0.167;entryDx=0;entryDy=0;entryPerimeter=0;" edge="1" parent="WIyWlLk6GJQsqaUBKTNV-1" source="p5qgGo7XCK0Cg9WAAUh_-48" target="p5qgGo7XCK0Cg9WAAUh_-67">
          <mxGeometry relative="1" as="geometry" />
        </mxCell>
      </root>
    </mxGraphModel>
  </diagram>
</mxfile>
